<svg width="27" height="34" viewBox="0 0 27 34" fill="none" xmlns="http://www.w3.org/2000/svg">
<g id="Group">
<path id="Vector" d="M18.1878 27.562C18.1878 28.8052 17.6939 29.9975 16.8148 30.8765C15.9358 31.7556 14.7435 32.2494 13.5003 32.2494C12.2572 32.2494 11.0649 31.7556 10.1858 30.8765C9.30677 29.9975 8.81292 28.8052 8.81292 27.562M14.6269 5.69209L12.3363 5.68741C7.11138 5.67491 2.57553 9.92014 2.53959 15.0622V20.984C2.53959 22.2184 2.38334 23.423 1.70992 24.4496L1.26149 25.1339C0.578686 26.1714 1.31305 27.562 2.53959 27.562H24.4611C25.6876 27.562 26.4204 26.1714 25.7392 25.1339L25.2908 24.4496C24.6189 23.423 24.4611 22.2168 24.4611 20.9824V15.0638C24.3986 9.92014 19.8518 5.70459 14.6269 5.69209V5.69209Z" stroke="white" stroke-width="2" stroke-linecap="round" stroke-linejoin="round"/>
<path id="Vector_2" d="M13.5003 1C14.3291 1 15.124 1.32923 15.71 1.91528C16.296 2.50132 16.6253 3.29616 16.6253 4.12495V5.68742H10.3754V4.12495C10.3754 3.29616 10.7046 2.50132 11.2907 1.91528C11.8767 1.32923 12.6715 1 13.5003 1Z" stroke="white" stroke-width="2" stroke-linecap="round" stroke-linejoin="round"/>
</g>
</svg>
